<svg viewBox="0 0 189 189" fill="none" xmlns="http://www.w3.org/2000/svg">
<style>
  .stand { fill: #3A3A3A }
  @media (prefers-color-scheme: dark) { .stand { fill: #8A8A8A } }
</style>
<g transform="translate(39.5 0)">
<path d="M53.7728 126.514H81.155V131.933H53.7728V126.514Z" fill="#D97631"/>
<path d="M33.3064 132.016L53.7729 113.672L48.8536 108.184L28.3872 126.528L33.3064 132.016Z" fill="#D97631"/>
<path d="M30.0987 97.8976L48.4586 118.424L53.7729 113.672L35.413 93.1452L30.0987 97.8976Z" fill="#D97631"/>
<path d="M18.6285 36.371C18.6285 16.2838 34.9123 0 54.9995 0C75.0866 0 91.3704 16.2838 91.3704 36.371V84.2742H18.6285V36.371Z" fill="#D97631"/>
<path d="M70.967 70.0807C70.967 67.631 72.9528 65.6452 75.4024 65.6452H91.3702V74.5161H75.4024C72.9528 74.5161 70.967 72.5303 70.967 70.0807Z" fill="#0B0B0B"/>
<path d="M70.967 53.6694C70.967 51.2197 72.9528 49.2339 75.4024 49.2339H91.3702V58.1048H75.4024C72.9528 58.1048 70.967 56.119 70.967 53.6694Z" fill="#0B0B0B"/>
<path d="M70.967 36.371C70.967 33.9213 72.9528 31.9355 75.4024 31.9355H91.3702V40.8065H75.4024C72.9528 40.8065 70.967 38.8206 70.967 36.371Z" fill="#0B0B0B"/>
<path d="M39.0315 36.371C39.0315 33.9213 37.0456 31.9355 34.596 31.9355H18.6282V40.8065H34.596C37.0456 40.8065 39.0315 38.8206 39.0315 36.371Z" fill="#0B0B0B"/>
<path d="M39.0315 53.6694C39.0315 51.2197 37.0456 49.2339 34.596 49.2339H18.6282V58.1048H34.596C37.0456 58.1048 39.0315 56.119 39.0315 53.6694Z" fill="#0B0B0B"/>
<path d="M39.0315 70.0807C39.0315 67.631 37.0456 65.6452 34.596 65.6452H18.6282V74.5161H34.596C37.0456 74.5161 39.0315 72.5303 39.0315 70.0807Z" fill="#0B0B0B"/>
<path class="stand" d="M8.87097 108.226C8.87097 133.702 29.5236 154.355 55 154.355C80.4764 154.355 101.129 133.702 101.129 108.226V78.0645H110V108.226C110 138.601 85.3757 163.226 55 163.226C24.6243 163.226 0 138.601 0 108.226V78.0645H8.87097V108.226Z"/>
<path class="stand" d="M50.5645 162.339H59.4355V188.952H50.5645V162.339Z"/>
<path class="stand" d="M22.1774 188.952V180.081H87.8226V188.952H22.1774Z"/>
</g>
</svg>
