<svg width="652" height="189" viewBox="0 0 652 189" fill="none" xmlns="http://www.w3.org/2000/svg">
<path d="M164.928 149V43.494H214.486C226.319 43.494 235.218 46.334 241.182 52.014C247.24 57.5993 250.27 66.6873 250.27 79.278C250.27 91.9633 247.24 101.146 241.182 106.826C235.123 112.411 226.224 115.204 214.486 115.204H182.962V149H164.928ZM213.208 99.158C220.497 99.158 225.42 97.596 227.976 94.472C230.626 91.348 231.952 86.2833 231.952 79.278C231.952 72.3673 230.626 67.35 227.976 64.226C225.42 61.102 220.497 59.54 213.208 59.54H183.104V99.158H213.208Z" fill="white"/>
<path d="M259.214 111.086C259.214 103.039 260.066 96.3653 261.77 91.064C263.568 85.7627 266.266 81.7393 269.864 78.994C273.461 76.154 277.437 74.2133 281.792 73.172C286.146 72.1307 291.4 71.61 297.554 71.61C303.707 71.61 308.961 72.1307 313.316 73.172C317.67 74.2133 321.646 76.154 325.244 78.994C328.841 81.7393 331.492 85.7627 333.196 91.064C334.994 96.3653 335.894 103.039 335.894 111.086C335.894 119.038 334.994 125.665 333.196 130.966C331.492 136.267 328.841 140.291 325.244 143.036C321.646 145.781 317.67 147.675 313.316 148.716C308.961 149.852 303.707 150.42 297.554 150.42C291.4 150.42 286.146 149.899 281.792 148.858C277.437 147.722 273.461 145.781 269.864 143.036C266.266 140.291 263.568 136.267 261.77 130.966C260.066 125.665 259.214 119.038 259.214 111.086ZM277.106 111.086C277.106 121.121 278.715 127.842 281.934 131.25C285.152 134.563 290.359 136.22 297.554 136.22C304.748 136.22 309.955 134.563 313.174 131.25C316.392 127.842 318.002 121.121 318.002 111.086C318.002 100.862 316.392 94.0933 313.174 90.78C309.955 87.4667 304.748 85.81 297.554 85.81C290.359 85.81 285.152 87.4667 281.934 90.78C278.715 94.0933 277.106 100.862 277.106 111.086Z" fill="white"/>
<path d="M346.993 111.228C346.993 103.181 347.845 96.46 349.549 91.064C351.347 85.668 353.951 81.6447 357.359 78.994C360.767 76.2487 364.459 74.3553 368.435 73.314C372.411 72.2727 377.144 71.752 382.635 71.752C392.291 71.752 400.385 74.2133 406.917 79.136V37.672H424.809V149H410.609L408.763 141.616C402.609 147.485 393.9 150.42 382.635 150.42C377.144 150.42 372.411 149.899 368.435 148.858C364.459 147.817 360.767 145.923 357.359 143.178C353.951 140.433 351.347 136.409 349.549 131.108C347.845 125.807 346.993 119.18 346.993 111.228ZM366.305 124.434C367.157 127.842 368.577 130.398 370.565 132.102C372.553 133.711 374.683 134.8 376.955 135.368C379.227 135.936 382.256 136.22 386.043 136.22C393.332 136.22 398.681 134.327 402.089 130.54C405.497 126.659 407.201 120.221 407.201 111.228C407.201 101.951 405.544 95.4187 402.231 91.632C398.917 87.8453 393.521 85.952 386.043 85.952C382.256 85.952 379.227 86.236 376.955 86.804C374.683 87.372 372.553 88.508 370.565 90.212C368.577 91.8213 367.109 94.3773 366.163 97.88C365.311 101.288 364.885 105.737 364.885 111.228C364.885 116.624 365.358 121.026 366.305 124.434Z" fill="white"/>
<path d="M445.1 72.178C446.899 65.5513 449.266 60.3447 452.2 56.558C455.23 52.6767 459.206 49.6473 464.128 47.47C469.051 45.198 473.926 43.7307 478.754 43.068C483.677 42.3107 489.546 41.932 496.362 41.932C501.474 41.932 507.296 42.4527 513.828 43.494C520.36 44.5353 525.614 45.7187 529.59 47.044V63.516C516.621 60.108 505.876 58.404 497.356 58.404C484.387 58.404 475.015 61.1493 469.24 66.64C463.466 72.036 460.578 81.8813 460.578 96.176C460.578 110.471 463.56 120.363 469.524 125.854C475.488 131.345 485.239 134.09 498.776 134.09C510.704 134.09 521.449 131.96 531.01 127.7V144.456C527.224 146.16 522.064 147.58 515.532 148.716C509 149.852 503.131 150.42 497.924 150.42C490.824 150.42 484.718 150.041 479.606 149.284C474.494 148.527 469.43 147.012 464.412 144.74C459.49 142.468 455.466 139.391 452.342 135.51C449.313 131.629 446.852 126.375 444.958 119.748C443.16 113.121 442.26 105.217 442.26 96.034C442.26 86.7567 443.207 78.8047 445.1 72.178Z" fill="#D97631"/>
<path d="M621.624 149H548.494V43.494H566.528V132.954H621.624V149Z" fill="#D97631"/>
<path d="M633.361 43.494H651.395V149H633.361V43.494Z" fill="#D97631"/>
<path d="M53.7728 126.514H81.155V131.933H53.7728V126.514Z" fill="#D97631"/>
<path d="M33.3064 132.016L53.7729 113.672L48.8536 108.184L28.3872 126.528L33.3064 132.016Z" fill="#D97631"/>
<path d="M30.0987 97.8976L48.4586 118.424L53.7729 113.672L35.413 93.1452L30.0987 97.8976Z" fill="#D97631"/>
<path d="M18.6285 36.371C18.6285 16.2838 34.9123 0 54.9995 0C75.0866 0 91.3704 16.2838 91.3704 36.371V84.2742H18.6285V36.371Z" fill="#D97631"/>
<path d="M70.967 70.0807C70.967 67.631 72.9528 65.6452 75.4024 65.6452H91.3702V74.5161H75.4024C72.9528 74.5161 70.967 72.5303 70.967 70.0807Z" fill="#0B0B0B"/>
<path d="M70.967 53.6694C70.967 51.2197 72.9528 49.2339 75.4024 49.2339H91.3702V58.1048H75.4024C72.9528 58.1048 70.967 56.119 70.967 53.6694Z" fill="#0B0B0B"/>
<path d="M70.967 36.371C70.967 33.9213 72.9528 31.9355 75.4024 31.9355H91.3702V40.8065H75.4024C72.9528 40.8065 70.967 38.8206 70.967 36.371Z" fill="#0B0B0B"/>
<path d="M39.0315 36.371C39.0315 33.9213 37.0456 31.9355 34.596 31.9355H18.6282V40.8065H34.596C37.0456 40.8065 39.0315 38.8206 39.0315 36.371Z" fill="#0B0B0B"/>
<path d="M39.0315 53.6694C39.0315 51.2197 37.0456 49.2339 34.596 49.2339H18.6282V58.1048H34.596C37.0456 58.1048 39.0315 56.119 39.0315 53.6694Z" fill="#0B0B0B"/>
<path d="M39.0315 70.0807C39.0315 67.631 37.0456 65.6452 34.596 65.6452H18.6282V74.5161H34.596C37.0456 74.5161 39.0315 72.5303 39.0315 70.0807Z" fill="#0B0B0B"/>
<path d="M8.87097 108.226C8.87097 133.702 29.5236 154.355 55 154.355C80.4764 154.355 101.129 133.702 101.129 108.226V78.0645H110V108.226C110 138.601 85.3757 163.226 55 163.226C24.6243 163.226 0 138.601 0 108.226V78.0645H8.87097V108.226Z" fill="#3A3A3A"/>
<path d="M50.5645 162.339H59.4355V188.952H50.5645V162.339Z" fill="#3A3A3A"/>
<path d="M22.1774 188.952V180.081H87.8226V188.952H22.1774Z" fill="#3A3A3A"/>
</svg>
